<svg width="34" height="34" viewBox="0 0 34 34" fill="none" xmlns="http://www.w3.org/2000/svg">
<g id="checkmark">
<g id="Group 1">
<g id="Group">
<path id="Vector" d="M17.0632 33.8798C8.07145 33.8798 0.7229 26.3089 0.7229 16.9399C0.7229 7.61821 8.07145 0 17.0632 0C26.0549 0 33.4034 7.61821 33.4034 16.9399C33.4491 26.3089 26.1005 33.8798 17.0632 33.8798Z" fill="#CFCFCF"/>
<path id="Vector_2" d="M13.6855 24.416C13.2747 24.416 12.9095 24.2741 12.6357 23.9428L8.02571 19.1637C7.43235 18.5486 7.43235 17.5549 8.02571 16.9398C8.61907 16.3246 9.57758 16.3246 10.1709 16.9398L13.7311 20.6306L24.0465 9.93669C24.6398 9.32156 25.5983 9.32156 26.1917 9.93669C26.7851 10.5518 26.7851 11.5455 26.1917 12.1606L14.7809 23.9428C14.507 24.2268 14.0963 24.416 13.6855 24.416Z" fill="white"/>
</g>
</g>
</g>
</svg>
