<svg width="18" height="34" viewBox="0 0 18 34" fill="none" xmlns="http://www.w3.org/2000/svg">
<g id="phone">
<path id="Vector" d="M14.8699 0H3.12949C1.40341 0 0 1.37697 0 3.07052V30.2284C0 31.922 1.40341 33.299 3.12949 33.299H14.8699C15.7291 33.299 16.5299 32.9709 17.1286 32.3721C17.7079 31.7923 18.015 31.0371 17.9994 30.2361V3.07052C17.9994 1.37697 16.596 0 14.8699 0ZM17.1053 30.2284C17.1053 31.4376 16.1023 32.4217 14.8699 32.4217H3.12949C1.89713 32.4217 0.89414 31.4376 0.89414 30.2284V3.07052C0.89414 1.86139 1.89713 0.877292 3.12949 0.877292H14.8699C16.1023 0.877292 17.1053 1.86139 17.1053 3.07052V30.2284Z" fill="#888888"/>
<path id="Vector_2" d="M11.8376 1.59058H6.16179C5.91488 1.59058 5.71472 1.78696 5.71472 2.02922V2.14365C5.71472 2.38591 5.91488 2.5823 6.16179 2.5823H11.8376C12.0846 2.5823 12.2847 2.38591 12.2847 2.14365V2.02922C12.2847 1.78696 12.0846 1.59058 11.8376 1.59058Z" fill="#888888"/>
</g>
</svg>
